<svg xmlns="http://www.w3.org/2000/svg" viewBox="0 0 32.34 34.25"><defs><style>.cls-1{fill:#314559;}</style></defs><g id="Layer_2" data-name="Layer 2"><g id="Layer_1-2" data-name="Layer 1"><path class="cls-1" d="M15.69,30.11H9.12a.71.71,0,0,1-.71-.71V4.56a.71.71,0,0,1,.17-.46L11.86.24A.74.74,0,0,1,13,.24L16.23,4.1a.71.71,0,0,1,.17.46V29.4A.71.71,0,0,1,15.69,30.11ZM9.84,28.68H15V4.83l-2.57-3-2.57,3Z"/><path class="cls-1" d="M31.63,8.65H2.36a2.36,2.36,0,1,1,0-4.71H29a.72.72,0,0,1,.55.26l2.65,3.29a.69.69,0,0,1,.09.75A.72.72,0,0,1,31.63,8.65ZM2.36,5.37a.93.93,0,1,0,0,1.85H30.13l-1.5-1.85Z"/><path class="cls-1" d="M26.28,16.61a.71.71,0,0,1-.72-.71v-8a.72.72,0,1,1,1.43,0v8A.71.71,0,0,1,26.28,16.61Z"/><path class="cls-1" d="M30.28,20.36H22.46a.72.72,0,0,1-.72-.72V16a.72.72,0,0,1,.72-.72h7.82A.71.71,0,0,1,31,16v3.66A.71.71,0,0,1,30.28,20.36Zm-7.11-1.43h6.39V16.69H23.17Z"/><path class="cls-1" d="M31.63,34.25H8.94a.72.72,0,0,1,0-1.43h22V30.11h-22a.72.72,0,0,1,0-1.43H31.63a.71.71,0,0,1,.71.71v4.15A.71.71,0,0,1,31.63,34.25Z"/><path class="cls-1" d="M31.63,30.11H21.11a.71.71,0,0,1-.71-.72V25.25a.71.71,0,0,1,.71-.71H31.63a.71.71,0,0,1,.71.71v4.14A.71.71,0,0,1,31.63,30.11Zm-9.81-1.43h9.09V26H21.82Z"/><path class="cls-1" d="M11.8,24.41H9.34a.72.72,0,0,1,0-1.43H11.8a.72.72,0,0,1,0,1.43Z"/><path class="cls-1" d="M11.8,17.7H9.34a.71.71,0,0,1,0-1.42H11.8a.71.71,0,0,1,0,1.42Z"/><path class="cls-1" d="M11.8,11H9.34a.72.72,0,0,1,0-1.43H11.8a.72.72,0,0,1,0,1.43Z"/><path class="cls-1" d="M15.44,27.76H12.28a.71.71,0,1,1,0-1.42h3.16a.71.71,0,1,1,0,1.42Z"/><path class="cls-1" d="M15.44,21.06H12.28a.72.72,0,0,1,0-1.43h3.16a.72.72,0,1,1,0,1.43Z"/><path class="cls-1" d="M15.44,14.35H12.28a.72.72,0,0,1,0-1.43h3.16a.72.72,0,1,1,0,1.43Z"/><path class="cls-1" d="M19,34.25H5.79a.71.71,0,0,1-.72-.71V32.08a3.41,3.41,0,0,1,3.4-3.4h7.87a3.41,3.41,0,0,1,3.4,3.4v1.46A.71.71,0,0,1,19,34.25ZM6.5,32.82H18.31v-.74a2,2,0,0,0-2-2H8.47a2,2,0,0,0-2,2Z"/></g></g></svg>